<?xml version="1.0" encoding="UTF-8"?>
<svg id="Layer_1" data-name="Layer 1" xmlns="http://www.w3.org/2000/svg" viewBox="0 0 954.39 229.14">
  <defs>
    <style>
      .cls-1 {
        fill: #d14c7a;
      }

      .cls-1, .cls-2, .cls-3, .cls-4, .cls-5 {
        fill-rule: evenodd;
      }

      .cls-2, .cls-6 {
        fill: #056c50;
      }

      .cls-3 {
        fill: #eda524;
      }

      .cls-7 {
        fill: #231f20;
      }

      .cls-8, .cls-4 {
        fill: #fff;
      }

      .cls-9 {
        fill: none;
        stroke: #c3c5c7;
        stroke-width: .04px;
      }

      .cls-10 {
        fill: #d04373;
      }

      .cls-11 {
        fill: #f5ab70;
      }

      .cls-5 {
        fill: #83ac40;
      }
    </style>
  </defs>
  <g>
    <path class="cls-2" d="M114.57,0c63.27,0,114.57,51.3,114.57,114.57s-51.3,114.57-114.57,114.57S0,177.84,0,114.57,51.29,0,114.57,0h0ZM114.57,0"/>
    <path class="cls-4" d="M114.57,33.32c-44.87,0-81.25,36.37-81.25,81.25s36.38,81.25,81.25,81.25,81.25-36.37,81.25-81.25-36.37-81.25-81.25-81.25h0ZM114.57,33.32"/>
    <path class="cls-9" d="M114.57,33.32c-44.87,0-81.25,36.37-81.25,81.25s36.38,81.25,81.25,81.25,81.25-36.37,81.25-81.25-36.37-81.25-81.25-81.25h0ZM114.57,33.32"/>
    <path class="cls-4" d="M114.55,114.85c5.18-1.27,10.49-1.9,15.82-1.9,22.31,0,42.97,11.16,55.27,29.71l1.32,1.99H42.18l1.32-1.99c12.29-18.55,32.96-29.71,55.27-29.71,5.39,0,10.69.65,15.8,1.9h0ZM114.55,114.85"/>
    <path class="cls-4" d="M116.15,110.04v17.82c0,.89-.73,1.62-1.62,1.62s-1.62-.73-1.62-1.62v-17.8c-2.89.94-6.07,1.3-8.81-.21-3.55-1.96-5.22-6.39-6.23-10.09l-.34-1.25,1.26-.33c3.12-.82,6.92-1.5,10.12-.44-.54-1.1-.88-2.3-.91-3.59-.08-4.06,2.92-7.72,5.62-10.44l.92-.92.91.92c2.7,2.72,5.7,6.39,5.62,10.44-.03,1.3-.37,2.51-.92,3.62,3.21-1.09,7.06-.41,10.2.41l1.26.33-.34,1.25c-1.01,3.69-2.68,8.13-6.23,10.09-2.77,1.52-5.97,1.15-8.88.19h0ZM116.15,110.04"/>
    <path class="cls-4" d="M114.57,4.29C53.66,4.29,4.29,53.66,4.29,114.57s49.37,110.28,110.28,110.28,110.28-49.37,110.28-110.28S175.47,4.29,114.57,4.29h0ZM114.56,35.72c43.55,0,78.85,35.3,78.85,78.85s-35.3,78.85-78.85,78.85-78.85-35.3-78.85-78.85S71.02,35.72,114.56,35.72h0ZM114.56,35.72"/>
    <polygon class="cls-1" points="201.29 57.18 193.08 58.48 196.86 51.09 192.32 44.84 185.95 59.35 179.45 64.08 183.55 69.72 190.05 64.99 205.71 63.27 201.29 57.18"/>
    <path class="cls-1" d="M163.66,34.43c.95-2.14,1.41-4.09,1.37-5.87-.04-1.77-.56-3.36-1.58-4.78-.53-.72-1.24-1.38-2.12-1.98-.88-.6-2.29-1.33-4.25-2.21l-7.71-3.43-8.83,19.84,6.52,2.9c2.15.96,3.73,1.59,4.76,1.9,1.03.31,1.94.46,2.72.45,2,0,3.77-.57,5.31-1.72,1.54-1.15,2.81-2.85,3.81-5.09ZM157.26,31.58c-.82,1.83-1.69,2.96-2.62,3.4-.93.43-2.19.3-3.78-.41l-1.71-.76,4.36-9.79,1.79.8c1.51.67,2.41,1.52,2.71,2.54.3,1.03.05,2.43-.75,4.22Z"/>
    <path class="cls-1" d="M134.01,12.26l-2.33,13.19c-.22,1.23-.62,2.07-1.21,2.48-.59.42-1.47.53-2.62.33-1.19-.21-2-.62-2.41-1.23-.42-.61-.52-1.52-.3-2.74l2.33-13.19-6.87-1.21-2.42,13.72c-.47,2.67.04,4.87,1.53,6.6,1.49,1.72,3.89,2.88,7.19,3.46,3.28.58,5.91.31,7.89-.8,1.98-1.11,3.2-3.01,3.68-5.69l2.42-13.72-6.87-1.21Z"/>
    <polygon class="cls-1" points="105.35 10.88 102.51 18.69 97.88 11.79 90.21 12.74 99.81 25.34 100.79 33.32 107.72 32.47 106.74 24.49 112.82 9.96 105.35 10.88"/>
    <polygon class="cls-1" points="76.22 17.47 79.22 24.21 73.29 26.85 70.29 20.11 63.91 22.95 72.75 42.79 79.12 39.96 75.7 32.27 81.64 29.62 85.06 37.31 91.43 34.48 82.6 14.63 76.22 17.47"/>
    <path class="cls-1" d="M63.67,37.39c-.94-.31-1.99-.28-3.16.11.4-.91.55-1.79.44-2.64-.1-.84-.46-1.66-1.07-2.43-.77-.98-1.65-1.64-2.65-1.97-1-.33-2.06-.32-3.18.04-.63.21-1.33.54-2.08,1-.75.46-1.88,1.28-3.39,2.46l-7.02,5.48,13.38,17.12,7.58-5.92c1.61-1.26,2.72-2.22,3.33-2.88.61-.66,1.07-1.34,1.4-2.04.49-1.03.66-2.09.49-3.16-.16-1.08-.64-2.13-1.43-3.14-.81-1.04-1.69-1.71-2.63-2.02ZM52.23,42.11l-2.31-2.95,1.52-1.19c1.21-.94,2.06-1.44,2.56-1.49.5-.05.97.21,1.41.77.42.54.56,1.03.43,1.5-.13.47-.58,1-1.35,1.59l-2.26,1.77ZM61.2,44.63c-.16.53-.66,1.12-1.5,1.77l-2.55,1.99-2.47-3.16,2.5-1.95c.86-.67,1.56-1.03,2.12-1.07.55-.05,1.05.21,1.49.78.44.56.58,1.11.42,1.64Z"/>
    <path class="cls-1" d="M40.63,75.72l4.03-5.55-1.83-2.37,4.07-5.6,2.8,1.04,4.07-5.6-26.34-4.84,13.2,22.91ZM39.88,64.1l-2.41-4.44,4.99.9-2.58,3.54Z"/>
    <path class="cls-1" d="M159.48,44.44l5.15,4.52,2.53-1.61,5.2,4.56-1.29,2.7,5.2,4.56,7.23-25.78-24.02,11.05ZM174.41,47.65l-3.29-2.89,4.64-2-1.35,4.89Z"/>
    <rect class="cls-8" x="63.86" y="190.95" width="2.79" height="3.08" transform="translate(-130.42 247.44) rotate(-86.96)"/>
    <polygon class="cls-7" points="126.05 229.13 126.05 229.14 126.05 229.14 126.05 229.13"/>
    <polygon class="cls-7" points="126.05 229.13 126.05 229.14 126.05 229.14 126.05 229.13"/>
    <path class="cls-3" d="M98.21,36.41l7.9,11.47,2.63-13.4,5.79,12.66,4.92-12.74,3.5,13.47,7.07-11.7,1.1,13.87,8.99-10.29-1.33,13.85,10.65-8.58-3.72,13.41,11.98-6.6-6,12.56,12.94-4.43-8.09,11.33,13.52-2.11-9.94,9.76,13.68.26-11.49,7.89,13.43,2.63-12.68,5.78,12.77,4.92-13.5,3.49,11.72,7.05-13.9,1.1,10.31,8.98-13.88-1.33,8.59,10.63-13.44-3.71,6.61,11.96-12.58-5.98,4.43,12.92-11.35-8.08,2.12,13.49-9.78-9.92-.26,13.66-7.9-11.47-2.63,13.4-5.79-12.66-4.92,12.74-3.5-13.47-7.07,11.7-1.1-13.87-8.99,10.3,1.33-13.85-10.65,8.58,3.72-13.41-11.98,6.6,6-12.56-12.94,4.43,8.09-11.33-13.52,2.11,9.94-9.76-13.68-.26,11.49-7.89-13.43-2.63,12.68-5.78-12.77-4.92,13.5-3.49-11.72-7.05,13.9-1.1-10.31-8.98,13.88,1.33-8.59-10.63,13.44,3.71-6.61-11.96,12.59,5.99-4.43-12.92,11.35,8.08-2.12-13.49,9.78,9.92.26-13.66ZM98.21,36.41"/>
    <path class="cls-4" d="M102.17,49.44c25.56-6.86,51.84,8.27,58.71,33.78,6.87,25.51-8.28,51.75-33.84,58.61-25.55,6.86-51.84-8.27-58.71-33.78-6.87-25.51,8.28-51.75,33.84-58.61h0ZM102.17,49.44"/>
    <path class="cls-3" d="M113.97,49.12c25.68-.33,46.77,20.19,47.1,45.83.33,25.64-20.23,46.69-45.91,47.01-25.68.33-46.77-20.19-47.09-45.83-.33-25.64,20.23-46.69,45.91-47.01h0ZM113.97,49.12"/>
    <path class="cls-1" d="M130.37,114.22c22.64,0,42.56,11.58,54.2,29.13h-31.61c-4.26-6.42-2.1-3.16,0,0H44.56c11.63-17.55,31.56-29.13,54.2-29.13,5.45,0,10.75.67,15.81,1.94,5.06-1.26,10.35-1.94,15.8-1.94h0ZM130.37,114.22"/>
    <path class="cls-2" d="M37.24,151.49c15.56,26.52,44.36,44.32,77.33,44.32s61.7-17.76,77.27-44.22c-2.19.33-3.97.9-4.86,1.85l-.13.14-.16.1c-16.53,10.43-41.04,6.28-57.67-4.63-7.03-4.61-11.81-11.09-14.09-18.97-2.28,7.89-7.05,14.36-14.09,18.97-16.63,10.91-41.14,15.06-57.67,4.63l-.16-.1-.13-.14c-.99-1.06-3.1-1.66-5.64-1.96h0ZM37.24,151.49"/>
    <path class="cls-4" d="M116.03,110.78v17.32c0,.86-.71,1.57-1.57,1.57s-1.57-.71-1.57-1.57v-17.3c-2.81.92-5.9,1.26-8.56-.2-3.45-1.9-5.07-6.21-6.06-9.8l-.33-1.22,1.22-.32c3.03-.8,6.73-1.45,9.83-.43-.53-1.07-.85-2.23-.88-3.49-.08-3.94,2.84-7.5,5.46-10.15l.89-.9.89.9c2.62,2.64,5.54,6.21,5.46,10.15-.03,1.27-.36,2.44-.89,3.51,3.12-1.06,6.86-.4,9.91.4l1.22.32-.33,1.22c-.98,3.59-2.6,7.9-6.06,9.8-2.69,1.48-5.8,1.12-8.63.18h0ZM116.03,110.78"/>
    <path class="cls-5" d="M129.54,100.51c-2.27,8.32-6.06,12.22-14.8,8.55,1.19-9.41,6.46-10.74,14.8-8.55h0ZM99.37,100.51c2.27,8.32,6.06,12.22,14.8,8.55-1.19-9.41-6.46-10.74-14.8-8.55h0ZM114.42,86.05c-6.07,6.13-7.56,11.36,0,17.09,7.56-5.74,6.07-10.96,0-17.09h0ZM114.42,86.05"/>
    <path class="cls-5" d="M114.46,103.14c.17,0,.32.15.32.33v27.47c0,.18-.14.33-.32.33s-.32-.15-.32-.33v-27.47c0-.18.14-.33.32-.33h0ZM114.46,103.14"/>
    <path class="cls-8" d="M166.07,168.57c-12.51,0-24.4-3.18-33.48-8.94-11.98-7.61-16.55-18.11-18.21-26.19-1.85,8.08-6.62,18.59-18.6,26.19-9.08,5.77-20.97,8.94-33.48,8.94-13.63,0-27.13-3.66-38.02-10.31-.05-.03-.1-.07-.15-.12-1.74-1.8-5.61-2.82-11.51-3.03-.29,0-.54-.19-.65-.46-2.79-7.01-4.85-14.36-6.14-21.82-.04-.22.02-.44.17-.6.14-.16.34-.25.55-.25,1.24.04,2.4.07,3.5.07,3.66,0,6.28-.24,7.59-.71,3.39-1.2,6.06-2.6,8.64-3.96,5-2.63,9.32-4.9,17.04-4.9,3.99,0,8.6.62,14.08,1.89,2.31.34,4.58.52,6.72.52,8.34,0,13.22-2.66,16.45-4.43.36-.2.71-.39,1.03-.56.1-.05.22-.08.34-.08.25,0,.48.13.62.34.11.18,2.77,4.48.55,8.91-2.06,4.1-7.53,6.8-16.27,8.04,3.01.55,7.45,1.15,12.41,1.15,11.88,0,27.53-3.41,34.65-19.66.1-.25.33-.42.6-.44.01,0,.06,0,.07,0,.27,0,.52.15.65.39,0,0,.02.04.02.05,7.11,16.26,22.52,19.67,34.19,19.67,4.86,0,9.2-.6,12.15-1.14-8.77-1.23-14.25-3.93-16.32-8.04-2.22-4.43.44-8.73.55-8.91.13-.21.36-.34.62-.34.12,0,.24.03.34.08.32.17.66.36,1.02.55,3.23,1.77,8.11,4.43,16.46,4.43,2.14,0,4.42-.18,6.78-.53,5.44-1.27,10.04-1.88,14.02-1.88,7.72,0,12.04,2.27,17.04,4.9,2.58,1.36,5.25,2.76,8.64,3.96,1.3.46,3.9.7,7.5.7,1.33,0,2.76-.03,4.24-.1h0c.24,0,.44.09.58.25.15.17.21.39.17.61-1.29,7.47-3.35,14.82-6.14,21.84-.11.27-.37.45-.66.46-6.36.14-10.35,1.13-12.2,3.04-.04.04-.09.08-.14.12-10.88,6.65-24.39,10.31-38.02,10.31Z"/>
    <path class="cls-8" d="M166.07,168.21c-12.44,0-24.26-3.15-33.28-8.88-12.53-7.95-16.98-19.07-18.39-27.78-1.62,8.71-6.29,19.83-18.82,27.78-9.02,5.73-20.84,8.88-33.28,8.88-13.57,0-27-3.64-37.83-10.26-.03-.02-.05-.04-.07-.06-1.81-1.87-5.76-2.93-11.76-3.14-.14,0-.27-.1-.33-.23-2.78-6.99-4.84-14.31-6.12-21.75-.02-.11.01-.22.08-.3.07-.08.17-.12.27-.12,0,0,0,0,.01,0,1.21.04,2.38.07,3.48.07,3.7,0,6.37-.25,7.71-.73,3.41-1.21,6.09-2.62,8.68-3.98,4.96-2.61,9.24-4.86,16.87-4.86,3.96,0,8.54.62,14,1.89,2.35.35,4.65.53,6.8.53,8.43,0,13.36-2.69,16.63-4.47.36-.2.7-.38,1.03-.55.05-.03.11-.04.17-.04.12,0,.24.06.31.17.11.17,2.66,4.3.53,8.55-2.17,4.33-8.3,7.06-18.24,8.11,2.87.62,8.35,1.59,14.71,1.59,11.99,0,27.79-3.45,34.98-19.88.05-.12.17-.21.3-.23.01,0,.03,0,.04,0,.13,0,.26.07.32.19,0,0,.01.02.01.03,7.19,16.44,22.74,19.89,34.52,19.89,6.23,0,11.61-.97,14.43-1.59-9.95-1.05-16.09-3.78-18.27-8.12-2.13-4.25.42-8.38.53-8.55.07-.11.19-.17.31-.17.06,0,.12.01.17.04.32.17.66.36,1.02.55,3.26,1.78,8.19,4.47,16.63,4.47,2.16,0,4.46-.18,6.83-.53,5.43-1.26,10.01-1.88,13.97-1.88,7.63,0,11.91,2.25,16.87,4.86,2.59,1.36,5.27,2.77,8.69,3.98,1.34.47,3.98.73,7.63.73,1.33,0,2.77-.03,4.26-.1,0,0,.01,0,.02,0,.1,0,.2.04.27.12.07.08.1.19.09.3-1.28,7.45-3.34,14.77-6.12,21.77-.05.14-.18.23-.33.23-6.47.14-10.54,1.17-12.45,3.15-.02.02-.05.04-.07.06-10.83,6.61-24.26,10.26-37.83,10.26Z"/>
    <path class="cls-5" d="M114.43,119.29c.25,0,.45.08.45.18v15.06c0,.1-.2.18-.45.18s-.46-.08-.46-.18v-15.06c0-.1.2-.18.46-.18h0ZM114.43,119.29"/>
    <path class="cls-11" d="M210.5,132.04c-13.12-4.64-15.82-12.4-39.35-6.94-14.02,2.08-20.71-2.43-24.71-4.53,0,0-8.9,14.09,19.62,16.31,0,0-38.71,11.23-51.48-17.99,0,0,0,0,0,.02,0-.01,0-.02,0-.02,0,0,0,0,0,0,0,0,0,0,0,0h0c-12.78,29.22-52.25,17.99-52.25,17.99,28.53-2.22,19.63-16.31,19.63-16.31-4,2.11-10.69,6.61-24.71,4.53-23.53-5.47-26.24,2.3-39.35,6.94-2.43.86-8.13.8-11.33.68,1.3,7.51,3.36,14.77,6.1,21.67,5.17.18,9.84,1,12.01,3.25,21.11,12.89,51.15,13.8,70.72,1.38,13.72-8.71,17.91-21.27,19.04-30.01h0c.92,8.74,4.83,21.29,18.55,30.01,19.57,12.43,49.61,11.52,70.72-1.38,2.29-2.38,7.18-3.15,12.7-3.27,2.75-6.91,4.81-14.17,6.1-21.69-3.11.13-9.41.27-12.02-.65Z"/>
    <path class="cls-10" d="M179.2,201.51l-1.98-.41-1.83-.32c-.17-.02-.35-.02-.52,0-.17.01-.29.02-.36.03-.23.06-.45.14-.66.24l-.51.35c-.19.12-.33.24-.42.35-.16-.05-.32-.1-.49-.17-.17-.07-.34-.15-.5-.22-.28-.13-.46-.23-.55-.3-.07-.1.14-.31.61-.61.35-.22.59-.36.72-.42.13-.06.3-.11.49-.14.34-.06.8-.05,1.37.02.57.07,1.28.2,2.13.4l2.59.65-.09.58ZM168.44,188.69l1.23.77-1.51.86,5.29,9.25h-1.61s-4.85-8.58-4.85-8.58l-1.53.87-1.23-.77,4.21-2.41ZM163.8,192.93l2.07,4.03,4.11-2.11.59,1.14-4.11,2.11.48.94c.17.34.13.58-.15.72-.18.09-.73-.02-1.67-.34-.93-.32-1.44-.56-1.53-.72-.04-.08-.05-.19-.04-.33s.08-.24.2-.32l.89-.46-2.07-4.03-2.5,1.29-1.2-.83,6.77-3.48,1.2.83-3.05,1.57ZM159.99,193.55l1.15.88-1.58.72,4.39,9.71-1.6-.15-4.02-9-1.6.73-1.15-.88,4.42-2ZM151.77,199.61l1.34,3.38c.16.41.37.7.63.88.26.18.53.21.81.1.48-.19.91-.51,1.27-.95.37-.44.61-.89.74-1.35l-4.8-2.06ZM156.63,200.98l-1.52-3.85-3.87,1.53,5.39,2.32ZM156.9,195.05l1.11.94-1.62.64,3.92,9.91-1.61-.22-1.28-3.48c-.21.38-.5.75-.87,1.1-.37.36-.72.6-1.06.74-.52.21-1.18.18-1.97-.08-.95-.3-1.57-.8-1.85-1.51l-1.57-3.98-1.93.76-1.11-.94,9.84-3.89ZM146.51,199.76c-.59-.48-1.13-.96-1.6-1.46-.68-.72-1.11-1.35-1.28-1.88-.16-.48-.13-.96.1-1.46s.58-.82,1.06-.98c.36-.12.74-.1,1.13.05.48.23.95.68,1.42,1.36l-.37.27c-.31-.35-.58-.57-.83-.66-.24-.1-.48-.1-.71-.03-.3.1-.51.33-.61.69-.13.33-.13.69,0,1.08.14.42.44.9.9,1.46.15.21.3.4.46.59.16.19.38.42.67.69l-.34.28ZM142.1,197.33c-.19-.1-.43-.17-.71-.23-.28-.06-.52-.05-.74.02-.12.04-.26.13-.42.26l-.56.41c-.14-.07-.41-.3-.82-.71l-.71-.75c-.03-.09.07-.2.3-.34l.66-.32c.32-.11.69-.12,1.13-.04.44.08.92.27,1.44.58l1.83,1.19,2.77,1.92-.35.38-2.06-1.33-1.75-1.03ZM142.02,206.61c.17.59.45,1,.85,1.23.4.23.87.28,1.41.12.48-.14,1.02-.51,1.62-1.13.59-.61,1.07-1.3,1.44-2.07-.48-.23-1.01-.42-1.61-.56-.74-.15-1.37-.16-1.88-.01-.72.2-1.24.55-1.55,1.02-.32.48-.41.94-.28,1.4ZM147.89,206.44c-.4.59-.83,1.09-1.3,1.5-.46.41-.98.69-1.55.86-.76.22-1.58.12-2.46-.28-1-.44-1.63-1.13-1.89-2.05-.19-.66-.12-1.29.2-1.89.39-.7,1.11-1.2,2.17-1.5.21-.06.41-.12.62-.18.2-.01.42-.03.64-.06.22-.03.5,0,.85.09.26.07.51.17.77.32.25.14.66.43,1.21.86l-.98-3.62-7.94,2.26-1.01-1.04,10.93-3.11,1.01,1.04-1.67.48,2.92,10.25-1.58-.38-.91-3.54ZM132.67,203.91l.69,3.87,1.03.3c.48.1.91.12,1.29.05.14-.02.28-.06.43-.11.15-.05.35-.16.6-.33.44-.25.76-.51.98-.78l-.67-3.78-4.34.77ZM139.18,201.45l.9,1.14-1.71.3,1.86,10.49-1.54-.54-.66-4.25-.9.44c-.37.16-.64.25-.81.28-.51.09-1,.07-1.48-.05-.48-.12-.94-.36-1.39-.69l-.38.58c-.15.21-.3.39-.46.55-.27.2-.43.33-.48.39-.04.05-.07.11-.09.16-.01.05-.02.08-.02.1.31.24.58.45.81.65.05.04.5.36,1.33.97l2.08,1.49-.52.74c-2.33-1.81-3.86-3.04-4.58-3.67-.86-.76-1.33-1.32-1.39-1.68-.03-.18,0-.36.09-.54.09-.18.23-.29.4-.34.08.02.16.03.25.05.09.02.26.07.51.17l.75.19c.09-.02.13-.17.12-.46-.01-.29-.04-.6-.08-.91-.04-.32-.12-.81-.24-1.49l-.17-.85-.16-.48-3.58.64-.9-1.14,12.42-2.21ZM121.61,200.71l-1.35,1.57-1.59-1.37,1.35-1.57,1.59,1.37ZM116.89,205.44l.63,1.29c.16.45.25.79.25,1.02.01.47-.22.9-.7,1.3-.37.28-.98.58-1.81.89.01.52.15.93.42,1.24.27.31.65.45,1.15.44.55-.01,1.07-.13,1.56-.36.49-.23,1.18-.71,2.06-1.47l-.11-4.43-3.45.08ZM120.53,211.41c-.3.31-.69.58-1.17.82-.48.23-.91.35-1.27.36-1.19.03-2.18-.34-2.98-1.09-.66-.62-1.14-1.47-1.46-2.55.85-.17,1.54-.44,2.07-.81.53-.36.79-.76.78-1.19,0-.23-.11-.52-.32-.86l-.36-.63-3.63.09-.72-1.26,11.24-.27.72,1.26-1.74.04.26,10.65-1.44-.77v-3.8ZM112.13,208.14c-.02.26-.18.38-.49.35-.62-.05-1.19-.08-1.7-.11-.51-.02-.96-.03-1.34-.01-.68-.05-1.19.03-1.51.25-.21.17-.39.38-.54.64-.15.26-.24.57-.27.93-.05.7.19,1.34.73,1.91.54.58,1.23.9,2.08.96.33.03.6,0,.81-.05l-.34-.67c-.08-.22-.11-.42-.09-.6.01-.17.07-.3.16-.41.09-.11.27-.17.53-.18.23.02.61.2,1.15.56.54.35.79.71.77,1.08-.02.21-.08.42-.19.63-.16.26-.36.45-.62.57l.6,1.47c.27.65.54,1.19.79,1.62l-.81.37-.64-1.47-.67-1.68-.51.1-.64-.03c-.96-.07-1.91-.61-2.86-1.62-1.03-1.1-1.5-2.29-1.4-3.57.06-.76.35-1.33.89-1.7.34-.2.77-.35,1.29-.43.53-.08,1.17-.09,1.93-.04l1.6.12.13-1.73-6.91-.53-.59-1.33,10.17.77.59,1.33-1.89-.14-.2,2.62ZM102.6,204.73c.29.59.51,1.11.66,1.57.15.46.2.87.15,1.23-.02.18-.2.4-.53.65-.33.25-.78.41-1.34.47,1.65,1.03,2.4,2.16,2.24,3.4-.11.86-.52,1.5-1.24,1.92-.63.36-1.29.5-1.99.41-1.07-.14-2.04-.75-2.9-1.85-.69-.89-1.23-1.99-1.63-3.32l.82-.26c.5,1.49,1.01,2.55,1.52,3.17.51.62,1.14.98,1.88,1.07.56.07,1.05-.07,1.48-.43.43-.36.68-.8.74-1.31.08-.59-.07-1.07-.44-1.43-.37-.36-.95-.71-1.73-1.04l-.84.08-.55-.02c-.18-.02-.31-.09-.39-.19l-.37-.69c-.11-.24-.17-.44-.18-.58.03-.24.21-.34.52-.3l.81.17c.43.1.73.19.89.27.65,0,1.15-.12,1.51-.33.36-.21.56-.48.6-.81.04-.35-.04-.74-.27-1.16-.16-.31-.37-.59-.63-.84l-6.26-.8-.52-1.36,11.09,1.42.52,1.36-3.63-.46ZM90.85,198.26l-1.75,1.1-1.11-1.78,1.75-1.1,1.11,1.78ZM85.05,201.06l.22,1.42c.02.48,0,.83-.06,1.05-.13.45-.48.8-1.05,1.03-.44.16-1.11.26-1.99.31-.14.5-.13.93.03,1.3.16.37.49.63.97.76.53.15,1.06.19,1.59.12.53-.07,1.33-.33,2.4-.79l1.21-4.27-3.32-.94ZM86.75,207.85c-.38.21-.83.35-1.36.43-.53.08-.97.07-1.32-.03-1.14-.33-1.98-.97-2.52-1.93-.44-.79-.65-1.75-.63-2.87.86.09,1.6.04,2.22-.15.62-.19.98-.49,1.1-.9.06-.22.05-.53-.05-.92l-.15-.71-3.5-.99-.31-1.42,10.82,3.08.31,1.42-1.67-.48-2.92,10.25-1.14-1.16,1.13-3.62ZM82.02,198.84l.17,1.44-1.62-.64-3.9,9.91-1-1.26,3.65-9.15-1.64-.64-.17-1.44,4.51,1.77ZM74.38,199.83l.62-1.2c.19-.43.29-.76.3-.99,0-.35-.18-.61-.55-.78-.25-.11-.51-.09-.78.06-.27.15-.47.37-.59.65-.18.39-.15.81.08,1.26.23.45.54.78.92,1.01ZM77.74,204.94l-3.6-1.63-.48,1.06c-.11.24-.29.3-.54.18-.17-.08-.45-.54-.84-1.38-.39-.85-.54-1.38-.44-1.6.04-.08.11-.16.23-.23.12-.07.24-.09.37-.05l.92.41.6-1.16c-.96-.84-1.56-1.59-1.81-2.27-.17-.51-.14-1.02.09-1.54.2-.44.49-.77.87-.99.47-.27,1-.28,1.56-.02.65.3,1.1.77,1.33,1.43.25.77.13,1.71-.38,2.84l-1.03,2.27,3.6,1.63-.47,1.04ZM79.01,199.3l-1.69-.76-.1-1.45,1.69.76.1,1.45ZM72.44,196.86l-1.51-.86-5.3,9.24-.83-1.4,2.31-3.84c-.24-.03-.5-.1-.78-.21l-.64-.31c-.21-.12-.44-.32-.69-.59-.25-.27-.44-.57-.57-.89l-.06.02c.02.42-.07.81-.28,1.18-.41.71-.99,1.15-1.73,1.3-.75.15-1.52,0-2.31-.45-.78-.45-1.33-1.18-1.66-2.19-.32-1.01-.42-2.34-.29-3.98h.72c-.14,1.28-.09,2.32.15,3.11.24.79.71,1.38,1.39,1.77.56.32,1.12.39,1.71.21.58-.18,1.03-.53,1.33-1.06.2-.34.27-.69.23-1.05-.04-.36-.19-.69-.46-1l-1.24-.18-.81-.2c-.07-.04-.16-.28-.28-.71-.07-.39-.09-.65-.06-.77.13-.22.31-.27.53-.14l.66.32,1.01.4c.17.1.46.09.86-.03.49-.16.86-.44,1.09-.85.22-.38.28-.75.17-1.09-.07-.34-.29-.61-.66-.83-.33-.19-.74-.3-1.23-.34l-1.5-.04c-.09-.05-.15-.19-.16-.41l.08-1.06c.15.02.38.04.7.07.32.03.58.06.79.1.43.09.8.22,1.11.4.25.14.52.41.82.8.3.39.52.84.69,1.35.16.51.23.94.21,1.29-.02.35-.12.67-.28.96-.17.29-.41.52-.73.69-.32.17-.66.24-1.03.2.49,1.2,1.13,2.02,1.91,2.46.21.12.56.22,1.05.28.49.07.83.06,1.02-.02l1.83-3.19-2.4-1.38.04-1.45,5.1,2.92-.04,1.45Z"/>
  </g>
  <g>
    <g>
      <path class="cls-6" d="M259.1,59.23h.51l20.38,41.57h-10.88l-2.9-6.26h-13.78l-2.85,6.26h-10.88l20.38-41.57ZM263.25,87.53c-1.42-3.25-3.08-7.29-3.87-9.79-.57,1.37-2.79,7.17-3.93,9.79h7.8Z"/>
      <path class="cls-6" d="M317.06,88.61c0,8.31-6.83,12.19-16.63,12.19h-14.63v-41h13.61c9,0,16.11,3.64,16.11,11.67,0,4.04-2.45,6.66-5.24,7.8,3.47,1.03,6.78,4.61,6.78,9.34ZM299.92,76.54c1.14,0,2.22-.11,3.13-.57,1.2-.51,1.99-1.76,1.99-3.53,0-3.02-2.16-4.33-5.01-4.33h-4.33v8.43h4.21ZM295.71,92.48h5.3c2.79,0,5.3-1.37,5.3-4.55s-2.39-4.61-5.07-4.61h-5.52v9.17Z"/>
      <path class="cls-6" d="M350.59,100.79v-16.46h-15.15v16.46h-10.42v-41h10.42v15.83h15.15v-15.83h10.48v41h-10.48Z"/>
      <path class="cls-6" d="M377.24,59.8l8.31,15.37,8.37-15.37h11.84l-14.98,25.34v15.66h-10.42v-15.66l-14.98-25.34h11.84Z"/>
      <path class="cls-6" d="M445.33,85.59c0,9.62-6.55,16-17.82,16s-17.82-6.38-17.82-16v-25.79h10.42v24.66c0,4.84,2.56,7.63,7.4,7.63s7.35-2.79,7.35-7.63v-24.66h10.48v25.79Z"/>
      <path class="cls-6" d="M455.12,100.79v-41h13.72c14.35,0,23.23,8.66,23.23,20.5s-8.88,20.5-23.17,20.5h-13.78ZM465.54,68.56v23.46h3.25c8.31,0,12.75-5.35,12.75-11.73s-4.44-11.73-12.81-11.73h-3.19Z"/>
      <path class="cls-6" d="M513.94,59.23h.51l20.38,41.57h-10.88l-2.9-6.26h-13.78l-2.85,6.26h-10.88l20.38-41.57ZM518.1,87.53c-1.42-3.25-3.08-7.29-3.87-9.79-.57,1.37-2.79,7.17-3.93,9.79h7.8Z"/>
      <path class="cls-6" d="M541.04,59.8l8.31,15.37,8.37-15.37h11.84l-14.98,25.34v15.66h-10.42v-15.66l-14.98-25.34h11.84Z"/>
      <path class="cls-6" d="M617.34,88.61c0,8.31-6.83,12.19-16.63,12.19h-14.63v-41h13.61c9,0,16.11,3.64,16.11,11.67,0,4.04-2.45,6.66-5.24,7.8,3.47,1.03,6.78,4.61,6.78,9.34ZM600.2,76.54c1.14,0,2.22-.11,3.13-.57,1.2-.51,1.99-1.76,1.99-3.53,0-3.02-2.16-4.33-5.01-4.33h-4.33v8.43h4.21ZM595.98,92.48h5.3c2.79,0,5.29-1.37,5.29-4.55s-2.39-4.61-5.07-4.61h-5.52v9.17Z"/>
      <path class="cls-6" d="M650.87,100.79v-16.46h-15.15v16.46h-10.42v-41h10.42v15.83h15.15v-15.83h10.48v41h-10.48Z"/>
      <path class="cls-6" d="M687.48,59.23h.51l20.38,41.57h-10.87l-2.9-6.26h-13.78l-2.85,6.26h-10.88l20.39-41.57ZM691.64,87.53c-1.42-3.25-3.08-7.29-3.87-9.79-.57,1.37-2.79,7.17-3.93,9.79h7.8Z"/>
      <path class="cls-6" d="M729.1,59.8c9.79,0,16.57,4.73,16.57,13.95,0,5.92-3.02,9.85-7.52,11.84l8.26,15.2h-10.88l-6.61-13.5h-4.55v13.5h-10.19v-41h14.92ZM724.37,68.56v10.42h5.24c3.13,0,5.52-1.48,5.52-5.24s-2.45-5.18-5.58-5.18h-5.18Z"/>
      <path class="cls-6" d="M770.04,59.23h.51l20.38,41.57h-10.87l-2.9-6.26h-13.78l-2.85,6.26h-10.88l20.39-41.57ZM774.19,87.53c-1.42-3.25-3.08-7.29-3.87-9.79-.57,1.37-2.79,7.17-3.93,9.79h7.8Z"/>
      <path class="cls-6" d="M811.49,68.56v32.23h-10.48v-32.23h-10.93v-8.77h32.34v8.77h-10.93Z"/>
    </g>
    <g>
      <path class="cls-6" d="M251.3,150.5l-2.68-2.22v20.84h-9.91v-41.57h.23l19.99,18.16,19.99-18.16h.29v41.57h-10.02v-20.84l-2.62,2.22c-2.56,2.45-5.07,4.9-7.63,7.29-2.56-2.39-5.07-4.84-7.63-7.29Z"/>
      <path class="cls-6" d="M289.38,169.12v-41h26.88v8.77h-16.46v7.29h14.06v8.31h-14.06v7.86h17.31v8.77h-27.73Z"/>
      <path class="cls-6" d="M344.9,169.91c-13.27,0-22.26-9.34-22.26-21.3s9.11-21.3,21.87-21.3c6.04,0,10.42,1.42,13.15,2.73v9.51c-2.62-1.2-6.66-2.73-12.24-2.73-7.86,0-12.3,5.47-12.3,11.79s4.38,11.9,11.79,11.9c1.48,0,3.13-.23,4.27-.51v-10.14h9.96v16.97c-3.87,1.94-9.22,3.08-14.24,3.08Z"/>
      <path class="cls-6" d="M383.79,127.55h.51l20.38,41.57h-10.88l-2.9-6.26h-13.78l-2.85,6.26h-10.88l20.38-41.57ZM387.94,155.85c-1.42-3.25-3.08-7.29-3.87-9.79-.57,1.37-2.79,7.17-3.93,9.79h7.8Z"/>
      <path class="cls-6" d="M422.61,169.12v-41h13.72c14.35,0,23.23,8.66,23.23,20.5s-8.88,20.5-23.17,20.5h-13.78ZM433.03,136.89v23.46h3.25c8.31,0,12.75-5.35,12.75-11.73s-4.44-11.73-12.81-11.73h-3.19Z"/>
      <path class="cls-6" d="M467.54,169.12v-41h26.88v8.77h-16.46v7.29h14.06v8.31h-14.06v7.86h17.31v8.77h-27.73Z"/>
      <path class="cls-6" d="M513.6,136.89v7.86h12.7v8.54h-12.7v15.83h-10.42v-41h25.51v8.77h-15.09Z"/>
      <path class="cls-6" d="M536.31,169.12v-41h26.88v8.77h-16.46v7.29h14.06v8.31h-14.06v7.86h17.31v8.77h-27.73Z"/>
      <path class="cls-6" d="M606.46,169.69l-21.01-18.51-3.3-2.73v20.67h-10.19v-41.57h.46l20.84,18.45c1.14.91,2.22,1.94,3.36,2.79v-20.67h10.25v41.57h-.4Z"/>
      <path class="cls-6" d="M615.63,167.69v-10.02c2.9,1.54,6.38,2.68,9.68,2.96,1.14.11,2.22.11,3.24.06,3.36-.23,5.24-1.14,5.24-2.85,0-2.16-2.56-3.25-7.57-5.13-6.89-2.62-11.33-5.47-11.33-12.98s6.21-12.41,15.55-12.41c4.1,0,8.2.8,10.93,1.94v9.62c-2.45-1.54-6.32-2.56-10.08-2.56s-6.15,1.31-6.15,3.36c0,1.94,2.39,3.25,7.17,5.18,6.89,2.73,11.62,5.64,11.62,12.93s-5.69,12.13-15.89,12.13c-4.67,0-9.34-.91-12.41-2.22Z"/>
      <path class="cls-6" d="M651.55,169.12v-41h26.88v8.77h-16.46v7.29h14.06v8.31h-14.06v7.86h17.31v8.77h-27.73Z"/>
      <path class="cls-6" d="M730.58,139.56c-2.33-1.2-5.98-2.73-10.88-2.73-7.74,0-12.24,5.47-12.24,11.79s4.38,11.79,11.79,11.79c5.24,0,9.17-1.48,11.62-2.73v9.62c-2.51,1.31-7.18,2.62-12.53,2.62-12.3,0-21.35-9.34-21.35-21.3s9.05-21.3,21.81-21.3c5.47,0,9.28,1.42,11.79,2.73v9.51Z"/>
      <path class="cls-6" d="M738.89,169.12v-41h10.42v32.23h14.8v8.77h-25.22Z"/>
      <path class="cls-6" d="M806.48,153.91c0,9.62-6.55,16-17.82,16s-17.82-6.38-17.82-16v-25.79h10.42v24.66c0,4.84,2.56,7.63,7.4,7.63s7.35-2.79,7.35-7.63v-24.66h10.48v25.79Z"/>
      <path class="cls-6" d="M814.84,167.69v-10.02c2.9,1.54,6.38,2.68,9.68,2.96,1.14.11,2.22.11,3.24.06,3.36-.23,5.24-1.14,5.24-2.85,0-2.16-2.56-3.25-7.57-5.13-6.89-2.62-11.33-5.47-11.33-12.98s6.21-12.41,15.55-12.41c4.1,0,8.2.8,10.93,1.94v9.62c-2.45-1.54-6.32-2.56-10.08-2.56s-6.15,1.31-6.15,3.36c0,1.94,2.39,3.25,7.17,5.18,6.89,2.73,11.62,5.64,11.62,12.93s-5.69,12.13-15.89,12.13c-4.67,0-9.34-.91-12.41-2.22Z"/>
      <path class="cls-6" d="M868.76,136.89v32.23h-10.48v-32.23h-10.93v-8.77h32.34v8.77h-10.93Z"/>
      <path class="cls-6" d="M886.52,169.12v-41h26.88v8.77h-16.46v7.29h14.06v8.31h-14.06v7.86h17.31v8.77h-27.73Z"/>
      <path class="cls-6" d="M937.08,128.12c9.79,0,16.57,4.73,16.57,13.95,0,5.92-3.02,9.85-7.52,11.84l8.26,15.2h-10.88l-6.61-13.5h-4.55v13.5h-10.19v-41h14.92ZM932.36,136.89v10.42h5.24c3.13,0,5.52-1.48,5.52-5.24s-2.45-5.18-5.58-5.18h-5.18Z"/>
    </g>
  </g>
</svg>